<svg id="visual" viewBox="0 0 960 540" width="960" height="540" xmlns="http://www.w3.org/2000/svg" xmlns:xlink="http://www.w3.org/1999/xlink" version="1.1"><rect x="0" y="0" width="960" height="540" fill="#001220"></rect><path d="M0 133L20 130.5C40 128 80 123 120 118.8C160 114.7 200 111.3 240 116.2C280 121 320 134 360 135.3C400 136.7 440 126.3 480 127.8C520 129.3 560 142.7 600 149.3C640 156 680 156 720 149.2C760 142.3 800 128.7 840 121.7C880 114.7 920 114.3 940 114.2L960 114L960 0L940 0C920 0 880 0 840 0C800 0 760 0 720 0C680 0 640 0 600 0C560 0 520 0 480 0C440 0 400 0 360 0C320 0 280 0 240 0C200 0 160 0 120 0C80 0 40 0 20 0L0 0Z" fill="#fa7268"></path><path d="M0 93L20 95.7C40 98.3 80 103.7 120 106.8C160 110 200 111 240 107.8C280 104.7 320 97.3 360 92.5C400 87.7 440 85.3 480 87.2C520 89 560 95 600 95.7C640 96.3 680 91.7 720 88.2C760 84.7 800 82.3 840 86C880 89.7 920 99.3 940 104.2L960 109L960 0L940 0C920 0 880 0 840 0C800 0 760 0 720 0C680 0 640 0 600 0C560 0 520 0 480 0C440 0 400 0 360 0C320 0 280 0 240 0C200 0 160 0 120 0C80 0 40 0 20 0L0 0Z" fill="#e34c67"></path><path d="M0 67L20 66.8C40 66.7 80 66.3 120 68.2C160 70 200 74 240 72.2C280 70.3 320 62.7 360 59C400 55.3 440 55.7 480 56.3C520 57 560 58 600 57.7C640 57.3 680 55.7 720 58.7C760 61.7 800 69.3 840 71.3C880 73.3 920 69.7 940 67.8L960 66L960 0L940 0C920 0 880 0 840 0C800 0 760 0 720 0C680 0 640 0 600 0C560 0 520 0 480 0C440 0 400 0 360 0C320 0 280 0 240 0C200 0 160 0 120 0C80 0 40 0 20 0L0 0Z" fill="#c62368"></path></svg>