<svg id="visual" viewBox="0 0 960 540" width="960" height="540" xmlns="http://www.w3.org/2000/svg" xmlns:xlink="http://www.w3.org/1999/xlink" version="1.1"><path d="M0 50L16 56.2C32 62.3 64 74.7 96 83.7C128 92.7 160 98.3 192 101.2C224 104 256 104 288 96.7C320 89.3 352 74.7 384 67.3C416 60 448 60 480 60C512 60 544 60 576 59.2C608 58.3 640 56.7 672 57.7C704 58.7 736 62.3 768 69.5C800 76.7 832 87.3 864 84.7C896 82 928 66 944 58L960 50L960 0L944 0C928 0 896 0 864 0C832 0 800 0 768 0C736 0 704 0 672 0C640 0 608 0 576 0C544 0 512 0 480 0C448 0 416 0 384 0C352 0 320 0 288 0C256 0 224 0 192 0C160 0 128 0 96 0C64 0 32 0 16 0L0 0Z" fill="#faebd7"></path><path d="M0 93L16 102C32 111 64 129 96 135.3C128 141.7 160 136.3 192 138.2C224 140 256 149 288 142.7C320 136.3 352 114.7 384 106.5C416 98.3 448 103.7 480 104.5C512 105.3 544 101.7 576 102.5C608 103.3 640 108.7 672 109.7C704 110.7 736 107.3 768 114.7C800 122 832 140 864 140.8C896 141.7 928 125.3 944 117.2L960 109L960 48L944 56C928 64 896 80 864 82.7C832 85.3 800 74.7 768 67.5C736 60.3 704 56.7 672 55.7C640 54.7 608 56.3 576 57.2C544 58 512 58 480 58C448 58 416 58 384 65.3C352 72.7 320 87.3 288 94.7C256 102 224 102 192 99.2C160 96.3 128 90.7 96 81.7C64 72.7 32 60.3 16 54.2L0 48Z" fill="#f0b291"></path><path d="M0 152L16 154.7C32 157.3 64 162.7 96 168.2C128 173.7 160 179.3 192 185.7C224 192 256 199 288 189C320 179 352 152 384 145.7C416 139.3 448 153.7 480 157.3C512 161 544 154 576 150.5C608 147 640 147 672 147C704 147 736 147 768 154.2C800 161.3 832 175.7 864 175.7C896 175.7 928 161.3 944 154.2L960 147L960 107L944 115.2C928 123.3 896 139.7 864 138.8C832 138 800 120 768 112.7C736 105.3 704 108.7 672 107.7C640 106.7 608 101.3 576 100.5C544 99.7 512 103.3 480 102.5C448 101.7 416 96.3 384 104.5C352 112.7 320 134.3 288 140.7C256 147 224 138 192 136.2C160 134.3 128 139.7 96 133.3C64 127 32 109 16 100L0 91Z" fill="#e6716b"></path><path d="M0 271L16 275.5C32 280 64 289 96 295.3C128 301.7 160 305.3 192 312.5C224 319.7 256 330.3 288 321.3C320 312.3 352 283.7 384 280.2C416 276.7 448 298.3 480 301.8C512 305.3 544 290.7 576 279.8C608 269 640 262 672 253C704 244 736 233 768 242.8C800 252.7 832 283.3 864 287.8C896 292.3 928 270.7 944 259.8L960 249L960 145L944 152.2C928 159.3 896 173.7 864 173.7C832 173.7 800 159.3 768 152.2C736 145 704 145 672 145C640 145 608 145 576 148.5C544 152 512 159 480 155.3C448 151.7 416 137.3 384 143.7C352 150 320 177 288 187C256 197 224 190 192 183.7C160 177.3 128 171.7 96 166.2C64 160.7 32 155.3 16 152.7L0 150Z" fill="#d62e66"></path><path d="M0 309L16 316.2C32 323.3 64 337.7 96 343C128 348.3 160 344.7 192 349.2C224 353.7 256 366.3 288 364.5C320 362.7 352 346.3 384 343.7C416 341 448 352 480 352C512 352 544 341 576 332.8C608 324.7 640 319.3 672 314.8C704 310.3 736 306.7 768 312.2C800 317.7 832 332.3 864 330.7C896 329 928 311 944 302L960 293L960 247L944 257.8C928 268.7 896 290.3 864 285.8C832 281.3 800 250.7 768 240.8C736 231 704 242 672 251C640 260 608 267 576 277.8C544 288.7 512 303.3 480 299.8C448 296.3 416 274.7 384 278.2C352 281.7 320 310.3 288 319.3C256 328.3 224 317.7 192 310.5C160 303.3 128 299.7 96 293.3C64 287 32 278 16 273.5L0 269Z" fill="#d62e66"></path><path d="M0 465L16 461.5C32 458 64 451 96 450.2C128 449.3 160 454.7 192 461C224 467.3 256 474.7 288 477.3C320 480 352 478 384 475.2C416 472.3 448 468.7 480 466.8C512 465 544 465 576 466C608 467 640 469 672 470C704 471 736 471 768 467.3C800 463.7 832 456.3 864 458.2C896 460 928 471 944 476.5L960 482L960 291L944 300C928 309 896 327 864 328.7C832 330.3 800 315.7 768 310.2C736 304.7 704 308.3 672 312.8C640 317.3 608 322.7 576 330.8C544 339 512 350 480 350C448 350 416 339 384 341.7C352 344.3 320 360.7 288 362.5C256 364.3 224 351.7 192 347.2C160 342.7 128 346.3 96 341C64 335.7 32 321.3 16 314.2L0 307Z" fill="#e6716b"></path><path d="M0 519L16 514.5C32 510 64 501 96 498.3C128 495.7 160 499.3 192 502.2C224 505 256 507 288 509.7C320 512.3 352 515.7 384 517.3C416 519 448 519 480 517.3C512 515.7 544 512.3 576 510.7C608 509 640 509 672 509.8C704 510.7 736 512.3 768 509.5C800 506.7 832 499.3 864 499.3C896 499.3 928 506.7 944 510.3L960 514L960 480L944 474.5C928 469 896 458 864 456.2C832 454.3 800 461.7 768 465.3C736 469 704 469 672 468C640 467 608 465 576 464C544 463 512 463 480 464.8C448 466.7 416 470.3 384 473.2C352 476 320 478 288 475.3C256 472.7 224 465.3 192 459C160 452.7 128 447.3 96 448.2C64 449 32 456 16 459.5L0 463Z" fill="#f0b291"></path><path d="M0 541L16 541C32 541 64 541 96 541C128 541 160 541 192 541C224 541 256 541 288 541C320 541 352 541 384 541C416 541 448 541 480 541C512 541 544 541 576 541C608 541 640 541 672 541C704 541 736 541 768 541C800 541 832 541 864 541C896 541 928 541 944 541L960 541L960 512L944 508.3C928 504.7 896 497.3 864 497.3C832 497.3 800 504.7 768 507.5C736 510.3 704 508.7 672 507.8C640 507 608 507 576 508.7C544 510.3 512 513.7 480 515.3C448 517 416 517 384 515.3C352 513.7 320 510.3 288 507.7C256 505 224 503 192 500.2C160 497.3 128 493.7 96 496.3C64 499 32 508 16 512.5L0 517Z" fill="#faebd7"></path></svg>