<svg id="visual" viewBox="0 0 960 540" width="960" height="540" xmlns="http://www.w3.org/2000/svg" xmlns:xlink="http://www.w3.org/1999/xlink" version="1.1"><rect x="0" y="0" width="960" height="540" fill="#faebd7"></rect><path d="M0 41L12.3 44.5C24.7 48 49.3 55 74 54.5C98.7 54 123.3 46 148 42.3C172.7 38.7 197.3 39.3 221.8 45.5C246.3 51.7 270.7 63.3 295.2 69.5C319.7 75.7 344.3 76.3 369 73.3C393.7 70.3 418.3 63.7 443 60C467.7 56.3 492.3 55.7 517 58.7C541.7 61.7 566.3 68.3 591 68.2C615.7 68 640.3 61 664.8 57C689.3 53 713.7 52 738.2 47.7C762.7 43.3 787.3 35.7 812 34.3C836.7 33 861.3 38 886 46.2C910.7 54.3 935.3 65.7 947.7 71.3L960 77L960 0L947.7 0C935.3 0 910.7 0 886 0C861.3 0 836.7 0 812 0C787.3 0 762.7 0 738.2 0C713.7 0 689.3 0 664.8 0C640.3 0 615.7 0 591 0C566.3 0 541.7 0 517 0C492.3 0 467.7 0 443 0C418.3 0 393.7 0 369 0C344.3 0 319.7 0 295.2 0C270.7 0 246.3 0 221.8 0C197.3 0 172.7 0 148 0C123.3 0 98.7 0 74 0C49.3 0 24.7 0 12.3 0L0 0Z" fill="#dd3f31" stroke-linecap="round" stroke-linejoin="miter"></path></svg>