<svg id="visual" viewBox="0 0 960 540" width="960" height="540" xmlns="http://www.w3.org/2000/svg" xmlns:xlink="http://www.w3.org/1999/xlink" version="1.1"><rect x="0" y="0" width="960" height="540" fill="#faebd7"></rect><path d="M0 472L12.3 476C24.7 480 49.3 488 74 485.8C98.7 483.7 123.3 471.3 148 465.2C172.7 459 197.3 459 221.8 460.2C246.3 461.3 270.7 463.7 295.2 472C319.7 480.3 344.3 494.7 369 495.7C393.7 496.7 418.3 484.3 443 476.2C467.7 468 492.3 464 517 470.5C541.7 477 566.3 494 591 497.2C615.7 500.3 640.3 489.7 664.8 481.3C689.3 473 713.7 467 738.2 464.8C762.7 462.7 787.3 464.3 812 470.7C836.7 477 861.3 488 886 487.2C910.7 486.3 935.3 473.7 947.7 467.3L960 461L960 541L947.7 541C935.3 541 910.7 541 886 541C861.3 541 836.7 541 812 541C787.3 541 762.7 541 738.2 541C713.7 541 689.3 541 664.8 541C640.3 541 615.7 541 591 541C566.3 541 541.7 541 517 541C492.3 541 467.7 541 443 541C418.3 541 393.7 541 369 541C344.3 541 319.7 541 295.2 541C270.7 541 246.3 541 221.8 541C197.3 541 172.7 541 148 541C123.3 541 98.7 541 74 541C49.3 541 24.7 541 12.3 541L0 541Z" fill="#dd3f31" stroke-linecap="round" stroke-linejoin="miter"></path></svg>