<svg id="visual" viewBox="0 0 960 540" width="960" height="540" xmlns="http://www.w3.org/2000/svg" xmlns:xlink="http://www.w3.org/1999/xlink" version="1.1"><rect x="0" y="0" width="960" height="540" fill="#faebd7"></rect><path d="M0 470L9.3 469.5C18.7 469 37.3 468 56.2 465.3C75 462.7 94 458.3 112.8 457.7C131.7 457 150.3 460 169.2 466C188 472 207 481 225.8 476.5C244.7 472 263.3 454 282.2 443.8C301 433.7 320 431.3 338.8 438.5C357.7 445.7 376.3 462.3 395.2 467C414 471.7 433 464.3 451.8 458.7C470.7 453 489.3 449 508.2 443.5C527 438 546 431 564.8 428.3C583.7 425.7 602.3 427.3 621.2 433.5C640 439.7 659 450.3 677.8 453.3C696.7 456.3 715.3 451.7 734.2 446.2C753 440.7 772 434.3 790.8 432.7C809.7 431 828.3 434 847.2 439.5C866 445 885 453 903.8 457C922.7 461 941.3 461 950.7 461L960 461L960 541L950.7 541C941.3 541 922.7 541 903.8 541C885 541 866 541 847.2 541C828.3 541 809.7 541 790.8 541C772 541 753 541 734.2 541C715.3 541 696.7 541 677.8 541C659 541 640 541 621.2 541C602.3 541 583.7 541 564.8 541C546 541 527 541 508.2 541C489.3 541 470.7 541 451.8 541C433 541 414 541 395.2 541C376.3 541 357.7 541 338.8 541C320 541 301 541 282.2 541C263.3 541 244.7 541 225.8 541C207 541 188 541 169.2 541C150.3 541 131.7 541 112.8 541C94 541 75 541 56.2 541C37.3 541 18.7 541 9.3 541L0 541Z" fill="#202731" stroke-linecap="round" stroke-linejoin="miter"></path></svg>