<svg id="visual" viewBox="0 0 960 540" width="960" height="540" xmlns="http://www.w3.org/2000/svg" xmlns:xlink="http://www.w3.org/1999/xlink" version="1.1"><rect x="0" y="0" width="960" height="540" fill="#202731"></rect><path d="M0 72L14.5 82.5C29 93 58 114 87.2 126.2C116.3 138.3 145.7 141.7 174.8 143C204 144.3 233 143.7 262 153C291 162.3 320 181.7 349 182.3C378 183 407 165 436.2 161.7C465.3 158.3 494.7 169.7 523.8 160.7C553 151.7 582 122.3 611 113.2C640 104 669 115 698 125.3C727 135.7 756 145.3 785.2 141C814.3 136.7 843.7 118.3 872.8 108.5C902 98.7 931 97.3 945.5 96.7L960 96L960 0L945.5 0C931 0 902 0 872.8 0C843.7 0 814.3 0 785.2 0C756 0 727 0 698 0C669 0 640 0 611 0C582 0 553 0 523.8 0C494.7 0 465.3 0 436.2 0C407 0 378 0 349 0C320 0 291 0 262 0C233 0 204 0 174.8 0C145.7 0 116.3 0 87.2 0C58 0 29 0 14.5 0L0 0Z" fill="#f70f98"></path><path d="M0 124L14.5 114.8C29 105.7 58 87.3 87.2 76.7C116.3 66 145.7 63 174.8 70.8C204 78.7 233 97.3 262 98.8C291 100.3 320 84.7 349 80C378 75.3 407 81.7 436.2 80C465.3 78.3 494.7 68.7 523.8 80.3C553 92 582 125 611 138.5C640 152 669 146 698 131.8C727 117.7 756 95.3 785.2 99.2C814.3 103 843.7 133 872.8 134.8C902 136.7 931 110.3 945.5 97.2L960 84L960 0L945.5 0C931 0 902 0 872.8 0C843.7 0 814.3 0 785.2 0C756 0 727 0 698 0C669 0 640 0 611 0C582 0 553 0 523.8 0C494.7 0 465.3 0 436.2 0C407 0 378 0 349 0C320 0 291 0 262 0C233 0 204 0 174.8 0C145.7 0 116.3 0 87.2 0C58 0 29 0 14.5 0L0 0Z" fill="#a23195"></path><path d="M0 105L14.5 100.8C29 96.7 58 88.3 87.2 86C116.3 83.7 145.7 87.3 174.8 88.7C204 90 233 89 262 90C291 91 320 94 349 101.3C378 108.7 407 120.3 436.2 117.8C465.3 115.3 494.7 98.7 523.8 98.8C553 99 582 116 611 117.3C640 118.7 669 104.3 698 95.5C727 86.7 756 83.3 785.2 78.8C814.3 74.3 843.7 68.7 872.8 77.5C902 86.3 931 109.7 945.5 121.3L960 133L960 0L945.5 0C931 0 902 0 872.8 0C843.7 0 814.3 0 785.2 0C756 0 727 0 698 0C669 0 640 0 611 0C582 0 553 0 523.8 0C494.7 0 465.3 0 436.2 0C407 0 378 0 349 0C320 0 291 0 262 0C233 0 204 0 174.8 0C145.7 0 116.3 0 87.2 0C58 0 29 0 14.5 0L0 0Z" fill="#543278"></path><path d="M0 90L14.5 82.7C29 75.3 58 60.7 87.2 55C116.3 49.3 145.7 52.7 174.8 50.7C204 48.7 233 41.3 262 37.5C291 33.7 320 33.3 349 35.2C378 37 407 41 436.2 41.8C465.3 42.7 494.7 40.3 523.8 38.7C553 37 582 36 611 43C640 50 669 65 698 65.7C727 66.3 756 52.7 785.2 51.2C814.3 49.7 843.7 60.3 872.8 60.8C902 61.3 931 51.7 945.5 46.8L960 42L960 0L945.5 0C931 0 902 0 872.8 0C843.7 0 814.3 0 785.2 0C756 0 727 0 698 0C669 0 640 0 611 0C582 0 553 0 523.8 0C494.7 0 465.3 0 436.2 0C407 0 378 0 349 0C320 0 291 0 262 0C233 0 204 0 174.8 0C145.7 0 116.3 0 87.2 0C58 0 29 0 14.5 0L0 0Z" fill="#1a2349"></path><path d="M0 60L14.5 58C29 56 58 52 87.2 51.7C116.3 51.3 145.7 54.7 174.8 51.7C204 48.7 233 39.3 262 37.5C291 35.7 320 41.3 349 43.7C378 46 407 45 436.2 47C465.3 49 494.7 54 523.8 56.8C553 59.7 582 60.3 611 60.8C640 61.3 669 61.7 698 60.7C727 59.7 756 57.3 785.2 51.2C814.3 45 843.7 35 872.8 35.2C902 35.3 931 45.7 945.5 50.8L960 56L960 0L945.5 0C931 0 902 0 872.8 0C843.7 0 814.3 0 785.2 0C756 0 727 0 698 0C669 0 640 0 611 0C582 0 553 0 523.8 0C494.7 0 465.3 0 436.2 0C407 0 378 0 349 0C320 0 291 0 262 0C233 0 204 0 174.8 0C145.7 0 116.3 0 87.2 0C58 0 29 0 14.5 0L0 0Z" fill="#000814"></path></svg>